M48
; #@! TF.GenerationSoftware,LibrePCB,LibrePCB,0.1.6
; #@! TF.CreationDate,2022-01-23T01:59:08
; #@! TF.ProjectId,kbdkid2,7819c900-32f6-47f1-a260-aa52c2de7dd9,v1
; #@! TF.Part,Single
; #@! TF.SameCoordinates
; #@! TF.FileFunction,NonPlated,1,2,NPTH
FMAT,2
METRIC,TZ
; #@! TA.AperFunction,MechanicalDrill
T1C3.0
; #@! TA.AperFunction,MechanicalDrill
T2C5.0
%
G90
G05
M71
T1
X175.895Y43.735
X180.895Y41.535
X167.005Y63.415
X172.005Y61.215
X102.235Y24.845
X107.235Y22.645
X118.745Y43.735
X123.745Y41.535
X76.2Y101.2
X81.2Y99.0
X247.65Y25.0
X252.65Y22.8
X137.795Y43.735
X142.795Y41.535
X238.125Y82.145
X243.125Y79.945
X228.6Y25.0
X233.6Y22.8
X26.035Y62.945
X31.035Y60.745
X156.845Y43.735
X161.845Y41.535
X209.55Y25.0
X214.55Y22.8
X135.89Y25.16
X140.89Y22.96
X219.075Y82.145
X224.075Y79.945
X142.875Y82.145
X147.875Y79.945
X233.045Y43.735
X238.045Y41.535
X47.625Y82.145
X52.625Y79.945
X279.8Y19.05
X282.0Y24.05
X171.45Y101.2
X176.45Y99.0
X213.995Y43.735
X218.995Y41.535
X66.675Y82.145
X71.675Y79.945
X23.495Y81.835
X28.495Y79.635
X161.925Y82.145
X166.925Y79.945
X147.955Y63.415
X152.955Y61.215
X99.695Y43.735
X104.695Y41.535
X247.65Y101.2
X252.65Y99.0
X194.945Y43.735
X199.945Y41.535
X266.7Y25.0
X271.7Y22.8
X109.855Y63.415
X114.855Y61.215
X276.225Y101.195
X281.225Y98.995
X45.085Y24.845
X50.085Y22.645
X57.15Y101.2
X62.15Y99.0
X279.8Y38.1
X282.0Y43.1
X95.25Y101.2
X100.25Y99.0
X114.3Y101.2
X119.3Y99.0
X71.755Y63.415
X76.755Y61.215
X224.155Y63.415
X229.155Y61.215
X128.905Y63.415
X133.905Y61.215
X205.105Y63.415
X210.105Y61.215
X21.59Y44.21
X26.59Y42.01
X38.1Y101.2
X43.1Y99.0
X123.825Y82.145
X128.825Y79.945
X52.705Y63.415
X57.705Y61.215
X21.59Y25.16
X26.59Y22.96
X152.4Y101.2
X157.4Y99.0
X104.775Y82.145
X109.775Y79.945
X180.975Y82.145
X185.975Y79.945
X273.685Y62.945
X278.685Y60.745
X173.99Y25.16
X178.99Y22.96
X90.805Y63.415
X95.805Y61.215
X190.5Y101.2
X195.5Y99.0
X69.215Y25.155
X74.215Y22.955
X85.725Y82.145
X90.725Y79.945
X209.55Y101.2
X214.55Y99.0
X42.545Y43.735
X47.545Y41.535
X228.6Y101.2
X233.6Y99.0
X200.025Y82.145
X205.025Y79.945
X133.35Y101.2
X138.35Y99.0
X257.175Y82.145
X262.175Y79.945
X19.05Y101.2
X24.05Y99.0
X281.305Y82.465
X286.305Y80.265
X243.205Y63.415
X248.205Y61.215
X259.715Y44.205
X264.715Y42.005
X80.645Y43.735
X85.645Y41.535
X61.595Y43.735
X66.595Y41.535
X186.055Y63.415
X191.055Y61.215
T2
X175.895Y37.785
X167.005Y57.465
X102.235Y18.895
X118.745Y37.785
X76.2Y95.25
X247.65Y19.05
X137.795Y37.785
X238.125Y76.195
X228.6Y19.05
X26.035Y56.995
X156.845Y37.785
X209.55Y19.05
X135.89Y19.21
X219.075Y76.195
X142.875Y76.195
X233.045Y37.785
X47.625Y76.195
X285.75Y19.05
X171.45Y95.25
X213.995Y37.785
X66.675Y76.195
X23.495Y75.885
X161.925Y76.195
X147.955Y57.465
X99.695Y37.785
X247.65Y95.25
X194.945Y37.785
X266.7Y19.05
X109.855Y57.465
X276.225Y95.245
X45.085Y18.895
X57.15Y95.25
X285.75Y38.1
X95.25Y95.25
X114.3Y95.25
X71.755Y57.465
X224.155Y57.465
X128.905Y57.465
X205.105Y57.465
X21.59Y38.26
X38.1Y95.25
X123.825Y76.195
X52.705Y57.465
X21.59Y19.21
X152.4Y95.25
X104.775Y76.195
X180.975Y76.195
X273.685Y56.995
X173.99Y19.21
X90.805Y57.465
X190.5Y95.25
X69.215Y19.205
X85.725Y76.195
X209.55Y95.25
X42.545Y37.785
X228.6Y95.25
X200.025Y76.195
X133.35Y95.25
X257.175Y76.195
X19.05Y95.25
X281.305Y76.515
X243.205Y57.465
X259.715Y38.255
X80.645Y37.785
X61.595Y37.785
X186.055Y57.465
T0
M30
