G04 --- HEADER BEGIN --- *
G04 #@! TF.GenerationSoftware,LibrePCB,LibrePCB,0.1.6*
G04 #@! TF.CreationDate,2022-01-23T01:59:08*
G04 #@! TF.ProjectId,kbdkid2,7819c900-32f6-47f1-a260-aa52c2de7dd9,v1*
G04 #@! TF.Part,Single*
G04 #@! TF.SameCoordinates*
G04 #@! TF.FileFunction,Copper,L2,Bot*
G04 #@! TF.FilePolarity,Positive*
%FSLAX66Y66*%
%MOMM*%
G01*
G75*
G04 --- HEADER END --- *
G04 --- APERTURE LIST BEGIN --- *
G04 #@! TA.AperFunction,SMDPad,CuDef*
%ADD10R,2.6X2.6*%
G04 #@! TD*
G04 --- APERTURE LIST END --- *
G04 --- BOARD BEGIN --- *
D10*
G04 #@! TO.N,N37*
G04 #@! TO.C,S37*
G04 #@! TO.P,S37,1,1*
X194630000Y61215000D03*
G04 #@! TO.N,C8*
G04 #@! TO.P,S37,2,2*
X182480000Y63415000D03*
G04 #@! TO.N,N44*
G04 #@! TO.C,S44*
G04 #@! TO.P,S44,1,1*
X70170000Y41535000D03*
G04 #@! TO.N,C2*
G04 #@! TO.P,S44,2,2*
X58020000Y43735000D03*
G04 #@! TO.N,N45*
G04 #@! TO.C,S45*
G04 #@! TO.P,S45,1,1*
X89220000Y41535000D03*
G04 #@! TO.N,C3*
G04 #@! TO.P,S45,2,2*
X77070000Y43735000D03*
G04 #@! TO.N,N54*
G04 #@! TO.C,S54*
G04 #@! TO.P,S54,1,1*
X268290000Y42005000D03*
G04 #@! TO.N,C12*
G04 #@! TO.P,S54,2,2*
X256140000Y44205000D03*
G04 #@! TO.N,N40*
G04 #@! TO.C,S40*
G04 #@! TO.P,S40,1,1*
X251780000Y61215000D03*
G04 #@! TO.N,C11*
G04 #@! TO.P,S40,2,2*
X239630000Y63415000D03*
G04 #@! TO.N,N28*
G04 #@! TO.C,S28*
G04 #@! TO.P,S28,1,1*
X289880000Y80265000D03*
G04 #@! TO.N,C13*
G04 #@! TO.P,S28,2,2*
X277730000Y82465000D03*
G04 #@! TO.N,N1*
G04 #@! TO.C,S1*
G04 #@! TO.P,S1,1,1*
X27625000Y99000000D03*
G04 #@! TO.N,C0*
G04 #@! TO.P,S1,2,2*
X15475000Y101200000D03*
G04 #@! TO.N,N27*
G04 #@! TO.C,S27*
G04 #@! TO.P,S27,1,1*
X265750000Y79945000D03*
G04 #@! TO.N,C12*
G04 #@! TO.P,S27,2,2*
X253600000Y82145000D03*
G04 #@! TO.N,N7*
G04 #@! TO.C,S7*
G04 #@! TO.P,S7,1,1*
X141925000Y99000000D03*
G04 #@! TO.N,C6*
G04 #@! TO.P,S7,2,2*
X129775000Y101200000D03*
G04 #@! TO.N,N24*
G04 #@! TO.C,S24*
G04 #@! TO.P,S24,1,1*
X208600000Y79945000D03*
G04 #@! TO.N,C9*
G04 #@! TO.P,S24,2,2*
X196450000Y82145000D03*
G04 #@! TO.N,N12*
G04 #@! TO.C,S12*
G04 #@! TO.P,S12,1,1*
X237175000Y99000000D03*
G04 #@! TO.N,C11*
G04 #@! TO.P,S12,2,2*
X225025000Y101200000D03*
G04 #@! TO.N,N43*
G04 #@! TO.C,S43*
G04 #@! TO.P,S43,1,1*
X51120000Y41535000D03*
G04 #@! TO.N,C1*
G04 #@! TO.P,S43,2,2*
X38970000Y43735000D03*
G04 #@! TO.N,N11*
G04 #@! TO.C,S11*
G04 #@! TO.P,S11,1,1*
X218125000Y99000000D03*
G04 #@! TO.N,C10*
G04 #@! TO.P,S11,2,2*
X205975000Y101200000D03*
G04 #@! TO.N,N80*
G04 #@! TO.C,S18*
G04 #@! TO.P,S18,1,1*
X94300000Y79945000D03*
G04 #@! TO.N,C3*
G04 #@! TO.P,S18,2,2*
X82150000Y82145000D03*
G04 #@! TO.N,N58*
G04 #@! TO.C,S58*
G04 #@! TO.P,S58,1,1*
X77790000Y22955000D03*
G04 #@! TO.N,C2*
G04 #@! TO.P,S58,2,2*
X65640000Y25155000D03*
G04 #@! TO.N,N10*
G04 #@! TO.C,S10*
G04 #@! TO.P,S10,1,1*
X199075000Y99000000D03*
G04 #@! TO.N,C9*
G04 #@! TO.P,S10,2,2*
X186925000Y101200000D03*
G04 #@! TO.N,N32*
G04 #@! TO.C,S32*
G04 #@! TO.P,S32,1,1*
X99380000Y61215000D03*
G04 #@! TO.N,C3*
G04 #@! TO.P,S32,2,2*
X87230000Y63415000D03*
G04 #@! TO.N,N61*
G04 #@! TO.C,S61*
G04 #@! TO.P,S61,1,1*
X182565000Y22960000D03*
G04 #@! TO.N,C8*
G04 #@! TO.P,S61,2,2*
X170415000Y25160000D03*
G04 #@! TO.N,N41*
G04 #@! TO.C,S41*
G04 #@! TO.P,S41,1,1*
X282260000Y60745000D03*
G04 #@! TO.N,C13*
G04 #@! TO.P,S41,2,2*
X270110000Y62945000D03*
G04 #@! TO.N,N23*
G04 #@! TO.C,S23*
G04 #@! TO.P,S23,1,1*
X189550000Y79945000D03*
G04 #@! TO.N,C8*
G04 #@! TO.P,S23,2,2*
X177400000Y82145000D03*
G04 #@! TO.N,N19*
G04 #@! TO.C,S19*
G04 #@! TO.P,S19,1,1*
X113350000Y79945000D03*
G04 #@! TO.N,C4*
G04 #@! TO.P,S19,2,2*
X101200000Y82145000D03*
G04 #@! TO.N,N8*
G04 #@! TO.C,S8*
G04 #@! TO.P,S8,1,1*
X160975000Y99000000D03*
G04 #@! TO.N,C7*
G04 #@! TO.P,S8,2,2*
X148825000Y101200000D03*
G04 #@! TO.N,N56*
G04 #@! TO.C,S56*
G04 #@! TO.P,S56,1,1*
X30165000Y22960000D03*
G04 #@! TO.N,C0*
G04 #@! TO.P,S56,2,2*
X18015000Y25160000D03*
G04 #@! TO.N,N30*
G04 #@! TO.C,S30*
G04 #@! TO.P,S30,1,1*
X61280000Y61215000D03*
G04 #@! TO.N,C1*
G04 #@! TO.P,S30,2,2*
X49130000Y63415000D03*
G04 #@! TO.N,N20*
G04 #@! TO.C,S20*
G04 #@! TO.P,S20,1,1*
X132400000Y79945000D03*
G04 #@! TO.N,C5*
G04 #@! TO.P,S20,2,2*
X120250000Y82145000D03*
G04 #@! TO.N,N2*
G04 #@! TO.C,S2*
G04 #@! TO.P,S2,1,1*
X46675000Y99000000D03*
G04 #@! TO.N,C1*
G04 #@! TO.P,S2,2,2*
X34525000Y101200000D03*
G04 #@! TO.N,N42*
G04 #@! TO.C,S42*
G04 #@! TO.P,S42,1,1*
X30165000Y42010000D03*
G04 #@! TO.N,C0*
G04 #@! TO.P,S42,2,2*
X18015000Y44210000D03*
G04 #@! TO.N,N38*
G04 #@! TO.C,S38*
G04 #@! TO.P,S38,1,1*
X213680000Y61215000D03*
G04 #@! TO.N,C9*
G04 #@! TO.P,S38,2,2*
X201530000Y63415000D03*
G04 #@! TO.N,N34*
G04 #@! TO.C,S34*
G04 #@! TO.P,S34,1,1*
X137480000Y61215000D03*
G04 #@! TO.N,C5*
G04 #@! TO.P,S34,2,2*
X125330000Y63415000D03*
G04 #@! TO.N,N39*
G04 #@! TO.C,S39*
G04 #@! TO.P,S39,1,1*
X232730000Y61215000D03*
G04 #@! TO.N,C10*
G04 #@! TO.P,S39,2,2*
X220580000Y63415000D03*
G04 #@! TO.N,N31*
G04 #@! TO.C,S31*
G04 #@! TO.P,S31,1,1*
X80330000Y61215000D03*
G04 #@! TO.N,C2*
G04 #@! TO.P,S31,2,2*
X68180000Y63415000D03*
G04 #@! TO.N,N6*
G04 #@! TO.C,S6*
G04 #@! TO.P,S6,1,1*
X122875000Y99000000D03*
G04 #@! TO.N,C5*
G04 #@! TO.P,S6,2,2*
X110725000Y101200000D03*
G04 #@! TO.N,N5*
G04 #@! TO.C,S5*
G04 #@! TO.P,S5,1,1*
X103825000Y99000000D03*
G04 #@! TO.N,C4*
G04 #@! TO.P,S5,2,2*
X91675000Y101200000D03*
G04 #@! TO.N,N55*
G04 #@! TO.C,S55*
G04 #@! TO.P,S55,1,1*
X282000000Y46675000D03*
G04 #@! TO.N,C13*
G04 #@! TO.P,S55,2,2*
X279800000Y34525000D03*
G04 #@! TO.N,N3*
G04 #@! TO.C,S3*
G04 #@! TO.P,S3,1,1*
X65725000Y99000000D03*
G04 #@! TO.N,C2*
G04 #@! TO.P,S3,2,2*
X53575000Y101200000D03*
G04 #@! TO.N,N57*
G04 #@! TO.C,S57*
G04 #@! TO.P,S57,1,1*
X53660000Y22645000D03*
G04 #@! TO.N,C1*
G04 #@! TO.P,S57,2,2*
X41510000Y24845000D03*
G04 #@! TO.N,N14*
G04 #@! TO.C,S14*
G04 #@! TO.P,S14,1,1*
X284800000Y98995000D03*
G04 #@! TO.N,C13*
G04 #@! TO.P,S14,2,2*
X272650000Y101195000D03*
G04 #@! TO.N,N33*
G04 #@! TO.C,S33*
G04 #@! TO.P,S33,1,1*
X118430000Y61215000D03*
G04 #@! TO.N,C4*
G04 #@! TO.P,S33,2,2*
X106280000Y63415000D03*
G04 #@! TO.N,N65*
G04 #@! TO.C,S65*
G04 #@! TO.P,S65,1,1*
X275275000Y22800000D03*
G04 #@! TO.N,C12*
G04 #@! TO.P,S65,2,2*
X263125000Y25000000D03*
G04 #@! TO.N,N51*
G04 #@! TO.C,S51*
G04 #@! TO.P,S51,1,1*
X203520000Y41535000D03*
G04 #@! TO.N,C9*
G04 #@! TO.P,S51,2,2*
X191370000Y43735000D03*
G04 #@! TO.N,N13*
G04 #@! TO.C,S13*
G04 #@! TO.P,S13,1,1*
X256225000Y99000000D03*
G04 #@! TO.N,C12*
G04 #@! TO.P,S13,2,2*
X244075000Y101200000D03*
G04 #@! TO.N,N46*
G04 #@! TO.C,S46*
G04 #@! TO.P,S46,1,1*
X108270000Y41535000D03*
G04 #@! TO.N,C4*
G04 #@! TO.P,S46,2,2*
X96120000Y43735000D03*
G04 #@! TO.N,N35*
G04 #@! TO.C,S35*
G04 #@! TO.P,S35,1,1*
X156530000Y61215000D03*
G04 #@! TO.N,C6*
G04 #@! TO.P,S35,2,2*
X144380000Y63415000D03*
G04 #@! TO.N,N22*
G04 #@! TO.C,S22*
G04 #@! TO.P,S22,1,1*
X170500000Y79945000D03*
G04 #@! TO.N,C7*
G04 #@! TO.P,S22,2,2*
X158350000Y82145000D03*
G04 #@! TO.N,N15*
G04 #@! TO.C,S15*
G04 #@! TO.P,S15,1,1*
X32070000Y79635000D03*
G04 #@! TO.N,C0*
G04 #@! TO.P,S15,2,2*
X19920000Y81835000D03*
G04 #@! TO.N,N79*
G04 #@! TO.C,S17*
G04 #@! TO.P,S17,1,1*
X75250000Y79945000D03*
G04 #@! TO.N,C2*
G04 #@! TO.P,S17,2,2*
X63100000Y82145000D03*
G04 #@! TO.N,N52*
G04 #@! TO.C,S52*
G04 #@! TO.P,S52,1,1*
X222570000Y41535000D03*
G04 #@! TO.N,C10*
G04 #@! TO.P,S52,2,2*
X210420000Y43735000D03*
G04 #@! TO.N,N9*
G04 #@! TO.C,S9*
G04 #@! TO.P,S9,1,1*
X180025000Y99000000D03*
G04 #@! TO.N,C8*
G04 #@! TO.P,S9,2,2*
X167875000Y101200000D03*
G04 #@! TO.N,N66*
G04 #@! TO.C,S66*
G04 #@! TO.P,S66,1,1*
X282000000Y27625000D03*
G04 #@! TO.N,C13*
G04 #@! TO.P,S66,2,2*
X279800000Y15475000D03*
G04 #@! TO.N,N16*
G04 #@! TO.C,S16*
G04 #@! TO.P,S16,1,1*
X56200000Y79945000D03*
G04 #@! TO.N,C1*
G04 #@! TO.P,S16,2,2*
X44050000Y82145000D03*
G04 #@! TO.N,N53*
G04 #@! TO.C,S53*
G04 #@! TO.P,S53,1,1*
X241620000Y41535000D03*
G04 #@! TO.N,C11*
G04 #@! TO.P,S53,2,2*
X229470000Y43735000D03*
G04 #@! TO.N,N21*
G04 #@! TO.C,S21*
G04 #@! TO.P,S21,1,1*
X151450000Y79945000D03*
G04 #@! TO.N,C6*
G04 #@! TO.P,S21,2,2*
X139300000Y82145000D03*
G04 #@! TO.N,N25*
G04 #@! TO.C,S25*
G04 #@! TO.P,S25,1,1*
X227650000Y79945000D03*
G04 #@! TO.N,C10*
G04 #@! TO.P,S25,2,2*
X215500000Y82145000D03*
G04 #@! TO.N,N60*
G04 #@! TO.C,S60*
G04 #@! TO.P,S60,1,1*
X144465000Y22960000D03*
G04 #@! TO.N,C6*
G04 #@! TO.P,S60,2,2*
X132315000Y25160000D03*
G04 #@! TO.N,N62*
G04 #@! TO.C,S62*
G04 #@! TO.P,S62,1,1*
X218125000Y22800000D03*
G04 #@! TO.N,C9*
G04 #@! TO.P,S62,2,2*
X205975000Y25000000D03*
G04 #@! TO.N,N49*
G04 #@! TO.C,S49*
G04 #@! TO.P,S49,1,1*
X165420000Y41535000D03*
G04 #@! TO.N,C7*
G04 #@! TO.P,S49,2,2*
X153270000Y43735000D03*
G04 #@! TO.N,N29*
G04 #@! TO.C,S29*
G04 #@! TO.P,S29,1,1*
X34610000Y60745000D03*
G04 #@! TO.N,C0*
G04 #@! TO.P,S29,2,2*
X22460000Y62945000D03*
G04 #@! TO.N,N63*
G04 #@! TO.C,S63*
G04 #@! TO.P,S63,1,1*
X237175000Y22800000D03*
G04 #@! TO.N,C10*
G04 #@! TO.P,S63,2,2*
X225025000Y25000000D03*
G04 #@! TO.N,N26*
G04 #@! TO.C,S26*
G04 #@! TO.P,S26,1,1*
X246700000Y79945000D03*
G04 #@! TO.N,C11*
G04 #@! TO.P,S26,2,2*
X234550000Y82145000D03*
G04 #@! TO.N,N48*
G04 #@! TO.C,S48*
G04 #@! TO.P,S48,1,1*
X146370000Y41535000D03*
G04 #@! TO.N,C6*
G04 #@! TO.P,S48,2,2*
X134220000Y43735000D03*
G04 #@! TO.N,N64*
G04 #@! TO.C,S64*
G04 #@! TO.P,S64,1,1*
X256225000Y22800000D03*
G04 #@! TO.N,C11*
G04 #@! TO.P,S64,2,2*
X244075000Y25000000D03*
G04 #@! TO.N,N4*
G04 #@! TO.C,S4*
G04 #@! TO.P,S4,1,1*
X84775000Y99000000D03*
G04 #@! TO.N,C3*
G04 #@! TO.P,S4,2,2*
X72625000Y101200000D03*
G04 #@! TO.N,N47*
G04 #@! TO.C,S47*
G04 #@! TO.P,S47,1,1*
X127320000Y41535000D03*
G04 #@! TO.N,C5*
G04 #@! TO.P,S47,2,2*
X115170000Y43735000D03*
G04 #@! TO.N,N59*
G04 #@! TO.C,S59*
G04 #@! TO.P,S59,1,1*
X110810000Y22645000D03*
G04 #@! TO.N,C4*
G04 #@! TO.P,S59,2,2*
X98660000Y24845000D03*
G04 #@! TO.N,N36*
G04 #@! TO.C,S36*
G04 #@! TO.P,S36,1,1*
X175580000Y61215000D03*
G04 #@! TO.N,C7*
G04 #@! TO.P,S36,2,2*
X163430000Y63415000D03*
G04 #@! TO.N,N50*
G04 #@! TO.C,S50*
G04 #@! TO.P,S50,1,1*
X184470000Y41535000D03*
G04 #@! TO.N,C8*
G04 #@! TO.P,S50,2,2*
X172320000Y43735000D03*
G04 --- BOARD END --- *
G04 #@! TF.MD5,22b1bb98c3831d36019ebedbec573f7c*
M02*
